<svg version="1.0" id="Layer_1" xmlns="http://www.w3.org/2000/svg" xmlns:xlink="http://www.w3.org/1999/xlink" x="0px" y="0px" viewBox="0 0 44 55" enable-background="new 0 0 44 55" xml:space="preserve"><path id="Flame" fill="#AF181C" d="M23.9,38.2h-0.6c0.5,0.5,0.9,1.4,0.9,2.4c0,1.6-2.2,4-2.2,5.2c0-1.2-2.2-3.6-2.2-5.2 c0-1,0.4-1.9,0.9-2.4h-0.6c-1.5,0.9-2.6,3-2.6,5.4c0,3.3,4.4,8.4,4.4,10.4c0-2.1,4.4-7.2,4.4-10.4C26.4,41.2,25.4,39.1,23.9,38.2z"/><path id="Body" fill="#121211" d="M41.8,32.5c0-0.1,0-0.1-0.1-0.2c-0.2-2.5-1.4-4.8-3.2-6.4c-0.3-1.2-1.6-2.2-2.8-2.4L36,16 c0-4.4-3.6-7.9-7.9-7.9l-5.4,0l0-5.9c0.3-0.2,0.6-0.6,0.6-1c0-0.6-0.5-1.1-1.1-1.1c-0.6,0-1.1,0.5-1.1,1.1c0,0.4,0.2,0.8,0.6,1 l0,5.9l-5.5,0c-4.3,0.1-7.7,3.6-7.7,7.9l0.3,7.4c-1.3,0.2-2.7,1.2-3,2.4c-1.8,1.6-3,3.9-3.2,6.4c0,0,0,0,0,0c-1.2,0.6-2,1.8-2,3.2 c0,1.8,1.3,3.3,3,3.5c0,0-0.6-3.1-0.6-3.5c0-0.7,0.5-1.2,1.2-1.2c0.7,0,1.2,0.5,1.2,1.2c0,0.5-0.6,3.5-0.6,3.5c1.7-0.3,3-1.8,3-3.5 c0-1.2-0.6-2.3-1.5-2.9c0,0,0-0.1-0.1-0.2c0.1-1.1,0.5-2.1,1.2-3c0.4,0.2,1.3,0.4,1.8,0.4l0.7,6.9l5.1,0l1.7,1.5h11.5l1.7-1.5l5.1,0 l0.7-6.9c0.5-0.1,1.2-0.2,1.6-0.4c0.7,0.9,1.1,1.9,1.2,3c0,0,0,0,0,0c-1.1,0.6-1.8,1.8-1.8,3.1c0,1.8,1.3,3.3,3,3.5 c0,0-0.6-3.1-0.6-3.5c0-0.7,0.5-1.2,1.2-1.2c0.7,0,1.2,0.5,1.2,1.2c0,0.5-0.6,3.5-0.6,3.5c1.7-0.3,3-1.8,3-3.5 C43.5,34.2,42.8,33.1,41.8,32.5z M23.3,23.5H21c-3.4,0-9.6,0-9.6-6.3c0-3.4,2.8-6.2,6.3-6.2h9.1c3.5,0,6.3,2.8,6.3,6.2 C32.9,23.5,26.8,23.5,23.3,23.5z"/><circle id="Left_eye" fill="#131313" cx="17.9" cy="17.2" r="3.1"/><circle id="Right_eye" fill="#131313" cx="26.8" cy="17.2" r="2.4"/></svg>